<?xml version="1.0" encoding="utf-8"?>
<svg xmlns="http://www.w3.org/2000/svg" viewBox="0.09 0.101 23.828 23.797" width="794.267px" height="793.233px" preserveAspectRatio="none"><path fill-rule="evenodd" clip-rule="evenodd" d="M 0.557 7.775 C 0.09 8.659 0.09 9.667 0.09 11.678 L 0.09 17.966 C 0.09 20.762 0.09 22.16 1.086 23.03 C 1.993 23.817 3.398 23.889 6.046 23.897 L 6.046 16.483 C 6.046 14.846 7.571 13.518 9.452 13.518 L 14.558 13.518 C 16.436 13.518 17.96 14.846 17.96 16.483 L 17.96 23.897 C 20.61 23.889 22.016 23.817 22.922 23.03 C 23.918 22.16 23.918 20.762 23.918 17.966 L 23.918 11.678 C 23.918 9.667 23.918 8.659 23.45 7.775 C 22.983 6.89 22.106 6.234 20.351 4.924 L 18.651 3.652 C 15.478 1.285 13.893 0.101 12.004 0.101 C 10.115 0.101 8.529 1.285 5.357 3.652 L 3.656 4.924 C 1.902 6.234 1.025 6.89 0.557 7.775 Z M 14.558 23.898 L 14.558 16.483 L 9.452 16.483 L 9.452 23.898 L 14.558 23.898 Z" fill="#222222" style="" id="object-0"/></svg>