<svg fill="#000000" height="200px" width="200px" version="1.2" baseProfile="tiny" id="Layer_1" xmlns="http://www.w3.org/2000/svg" xmlns:xlink="http://www.w3.org/1999/xlink" viewBox="-63 65 128 128" xml:space="preserve"><g id="SVGRepo_bgCarrier" stroke-width="0"></g><g id="SVGRepo_tracerCarrier" stroke-linecap="round" stroke-linejoin="round"></g><g id="SVGRepo_iconCarrier"> <path d="M-43.2,72.6c0.2,0.4,0.5,0.7,0.8,1c2,2,5.3,2,7.3,0c0.3-0.3,0.6-0.6,0.8-1c1.8-3.1,5.1-5.2,9-5.2c5.8,0,10.4,4.7,10.4,10.4 c0,5.8-4.7,10.4-10.4,10.4C-34.4,88.2-41.9,81.5-43.2,72.6z M-3.2,102C-4.1,95.7-9.5,90.9-16,90.9h-19.8c-6.5,0-11.9,4.8-12.8,11.1 l-3.9,32.9c-0.3,2.5,1.5,4.7,4,5c2.5,0.3,4.7-1.5,5-4l3.6-30.6c0.1-0.6,0.6-1.1,1.3-1.1c0.7,0,1.3,0.6,1.3,1.3c0,0.1,0,0.2,0,0.2 s-2.7,21.7-2.7,22.1c-0.1,0.6-0.1,1.2-0.1,1.7v55.1c0,3.9,2.9,7,6.5,7c3.6,0,6.5-3.1,6.5-7V140c0-0.7,0.6-1.3,1.3-1.3 s1.3,0.6,1.3,1.3v44.8c0,3.9,2.9,7,6.5,7s6.5-3.1,6.5-7v-55.2c0-0.5,0-1.2-0.1-1.7c-0.1-0.4-2.7-22.1-2.7-22.1s0-0.1,0-0.2 c0-0.7,0.6-1.3,1.3-1.3c0.6,0,1.1,0.5,1.3,1.1l3.6,30.6c0.3,2.5,2.5,4.3,5,4c2.3-0.4,4.1-2.6,3.8-5.1L-3.2,102z M27.8,88.2 c9.1,0,16.6-6.7,17.9-15.5c-0.2,0.4-0.5,0.7-0.8,1c-2,2-5.3,2-7.3,0c-0.3-0.3-0.6-0.6-0.8-1c-1.8-3.1-5.2-5.2-9-5.2 c-5.7,0-10.4,4.6-10.4,10.4C17.5,83.6,22.1,88.2,27.8,88.2z M55,134.9l-4-33c-0.9-6.3-6.3-11.1-12.8-11.1H18.5 c-6.5,0-11.9,4.8-12.8,11.1l-3.9,32.9c-0.3,2.5,1.5,4.7,4,5s4.7-1.5,5-4l3.6-30.6c0.1-0.6,0.6-1.1,1.3-1.1s1.3,0.6,1.3,1.3 c0,0.1,0,0.2,0,0.2s-2.7,21.7-2.7,22.1c-0.1,0.6-0.1,1.2-0.1,1.7v55.1c0,3.9,2.9,7,6.5,7s6.5-3.1,6.5-7V140c0-0.7,0.6-1.3,1.3-1.3 s1.3,0.6,1.3,1.3v44.8c0,3.9,2.9,7,6.5,7c3.6,0,6.5-3.1,6.5-7v-55.2c0-0.5,0-1.2-0.1-1.7c-0.1-0.4-2.7-22.1-2.7-22.1s0-0.1,0-0.2 c0-0.7,0.6-1.3,1.3-1.3c0.6,0,1.1,0.5,1.3,1.1l3.6,30.6c0.3,2.5,2.5,4.3,5,4C53.5,139.6,55.3,137.4,55,134.9z"></path> </g></svg>