<svg fill="#000000" height="200px" width="200px" version="1.1" id="Capa_1" xmlns="http://www.w3.org/2000/svg" xmlns:xlink="http://www.w3.org/1999/xlink" viewBox="0 0 297.04 297.04" xml:space="preserve"><g id="SVGRepo_bgCarrier" stroke-width="0"></g><g id="SVGRepo_tracerCarrier" stroke-linecap="round" stroke-linejoin="round"></g><g id="SVGRepo_iconCarrier"> <g> <path d="M79.239,137.926c8.957,0,17.604,2.788,24.822,7.729c7.219-4.941,15.866-7.729,24.822-7.729c0.158,0,0.314,0.01,0.472,0.012 c-3.3-2.586-6.255-5.65-8.732-9.148c-5.172-7.302-7.895-15.96-8.04-24.699c-8.22-3.033-15.469-8.493-20.654-15.814 c-3.022-4.266-5.217-8.944-6.553-13.842c-20.468,7.83-35.056,28.146-35.056,51.981c0,6.923,1.241,13.544,3.489,19.655 C60.991,140.951,69.765,137.926,79.239,137.926z"></path> <path d="M128.883,152.926c-10.546,0-19.77,5.647-24.822,14.08c-5.052-8.433-14.277-14.08-24.822-14.08 c-15.972,0-28.919,12.947-28.919,28.919c0,6.418,2.091,12.347,5.628,17.143c14.943,20.261,23.05,44.792,23.05,69.967v18.223 c0,5.446,4.415,9.861,9.861,9.861h30.405c5.446,0,9.861-4.415,9.861-9.861v-18.223c0-25.256,8.059-49.642,23.05-69.967 c3.538-4.796,5.629-10.725,5.629-17.143C157.802,165.874,144.855,152.926,128.883,152.926z"></path> <path d="M244.906,28.974L227.332,4.162C225.41,1.449,222.367,0,219.277,0c-1.971,0-3.961,0.589-5.691,1.815l-14.871,10.533 c-19.983,14.154-43.681,21.653-68.121,21.653c-0.766,0-1.531-0.007-2.298-0.022c-0.186-0.003-0.372-0.005-0.557-0.005 c-5.778,0-11.611,1.727-16.685,5.321c-13.034,9.231-16.116,27.281-6.884,40.314c5.636,7.958,14.56,12.203,23.622,12.203 c0.738,0,1.476-0.028,2.214-0.085c-3.961,8.997-3.238,19.788,2.857,28.394c5.637,7.958,14.561,12.206,23.624,12.206 c5.78,0,11.615-1.727,16.69-5.322c5.237-3.709,8.867-8.842,10.736-14.501c7.897-23.905,23.23-44.699,43.774-59.25l14.871-10.533 C247.003,39.572,248.053,33.418,244.906,28.974z M130.98,56.751c-4.49,0-8.143,3.652-8.143,8.142c0,4.143-3.357,7.5-7.5,7.5 s-7.5-3.357-7.5-7.5c0-12.761,10.382-23.142,23.143-23.142c4.143,0,7.5,3.357,7.5,7.5C138.48,53.394,135.123,56.751,130.98,56.751z "></path> </g> </g></svg>