<!DOCTYPE svg PUBLIC "-//W3C//DTD SVG 1.1//EN" "http://www.w3.org/Graphics/SVG/1.1/DTD/svg11.dtd">
<!-- Uploaded to: SVG Repo, www.svgrepo.com, Transformed by: SVG Repo Mixer Tools -->
<svg version="1.1" id="Icons" xmlns="http://www.w3.org/2000/svg" xmlns:xlink="http://www.w3.org/1999/xlink" viewBox="0 0 32 32" xml:space="preserve" width="800px" height="800px" fill="#ababab" stroke="#ababab">
<g id="SVGRepo_bgCarrier" stroke-width="0"/>
<g id="SVGRepo_tracerCarrier" stroke-linecap="round" stroke-linejoin="round"/>
<g id="SVGRepo_iconCarrier"> <style type="text/css"> .st0{fill:none;stroke:#b3b3b3;stroke-width:2;stroke-linecap:round;stroke-linejoin:round;stroke-miterlimit:10;} </style> <path class="st0" d="M14,18c0,1.2,0,0.5,0,2c0,6.8-2,7.3-5,7.3c-2.8,0-6,5.8-6-3.8S8.2,6,11.3,6c0.8,0,1.5,0.3,1.9,1.9"/> <path class="st0" d="M18,18c0,1.2,0,0.5,0,2c0,6.8,2,7.3,5,7.3c2.8,0,6,5.8,6-3.8S23.8,6,20.8,6c-0.8,0-1.5,0.3-1.9,1.9"/> <path class="st0" d="M16,2v6.6c0,1.5-0.7,3-1.9,4L10,16"/> <path class="st0" d="M16,8.6c0,1.5,0.7,3,1.9,4L22,16"/> </g>
</svg>