<svg version="1.1" id="_x32_" xmlns="http://www.w3.org/2000/svg" xmlns:xlink="http://www.w3.org/1999/xlink" viewBox="0 0 512 512" xml:space="preserve" fill="#000000"><g id="SVGRepo_bgCarrier" stroke-width="0"></g><g id="SVGRepo_tracerCarrier" stroke-linecap="round" stroke-linejoin="round"></g><g id="SVGRepo_iconCarrier"> <style type="text/css">  .st0{fill:#000000;}  </style> <g> <path class="st0" d="M389.503,117.203c-15.406-3.203-30.266-4.406-44-3.672c-7.547-0.313-14.266-0.906-20.172-1.734 c-7.594-1.063-13.859-2.516-18.922-4.125c-4.453-1.422-7.984-2.953-10.813-4.484c-2.469-1.344-4.391-2.656-5.969-3.969 c-1.391-1.156-2.516-2.266-3.516-3.438c-1.719-2.031-3.078-4.219-4.313-7c-0.922-2.094-1.734-4.469-2.422-7.25 c-1.031-4.156-1.766-9.141-2.188-14.813c-0.438-5.656-0.563-11.938-0.563-18.656c0-5.5,0.094-11.266,0.094-17.25V0h-68.297v30.813 c0,5.344-0.078,11.125-0.078,17.25c0,6.484,0.094,13.344,0.516,20.484c0.375,6.266,1.016,12.734,2.156,19.422 c1,5.844,2.375,11.844,4.328,17.906c1.703,5.313,3.859,10.656,6.594,15.938c2.375,4.641,5.188,9.219,8.484,13.594 c5.734,7.688,13.031,14.625,21.297,20.781c11.891,8.813,17.063,22.063,17.063,36.094c0,62.281-30.922,101.594-107.469,101.594 c-47.609,0-80.516,37.063-85,41.813c-7.859,8.281-14.547,17.766-20.031,28.172c-4.125,7.828-7.609,16.156-10.5,25.016 c-4.344,13.281-7.406,27.719-9.422,43.5s-2.969,32.906-2.969,51.656V512h66.25v-27.969c-0.016-14.438,0.641-27.375,1.875-38.813 c1.063-10.031,2.484-18.938,4.469-26.688c4.766-18.719,30.422-5.125,45.016,3.406c60.359,35.344,216.344,70.469,301.704-64.938 C508.738,268.156,467.535,133.391,389.503,117.203z"></path> </g> </g></svg>