<?xml version="1.0" standalone="no"?>
<!DOCTYPE svg PUBLIC "-//W3C//DTD SVG 20010904//EN"
 "http://www.w3.org/TR/2001/REC-SVG-20010904/DTD/svg10.dtd">
<svg version="1.0" xmlns="http://www.w3.org/2000/svg"
 width="666.000000pt" height="644.000000pt" viewBox="0 0 666.000000 644.000000"
 preserveAspectRatio="xMidYMid meet">

<g transform="translate(0.000000,644.000000) scale(0.100000,-0.100000)"
fill="#000000" stroke="none">
<path d="M3250 6351 c-99 -20 -204 -103 -247 -197 -85 -186 7 -413 196 -485
45 -17 72 -20 141 -17 73 3 94 9 148 38 74 39 125 92 161 169 22 48 26 70 26
146 0 78 -4 97 -28 145 -76 154 -233 233 -397 201z"/>
<path d="M75 6149 c37 -122 200 -228 419 -275 191 -40 265 -45 816 -54 597 -9
674 -16 843 -71 327 -107 514 -332 616 -744 11 -44 36 -155 56 -247 39 -183
79 -295 121 -339 35 -37 49 -37 30 -1 -22 43 -34 129 -46 332 -6 102 -18 240
-26 306 -57 492 -266 777 -650 892 -127 38 -207 46 -799 72 -809 36 -898 43
-1120 86 -85 17 -222 50 -250 61 -14 5 -16 2 -10 -18z"/>
<path d="M6495 6149 c-256 -70 -458 -93 -1075 -119 -913 -39 -982 -47 -1173
-139 -329 -159 -480 -450 -517 -997 -21 -305 -30 -396 -49 -450 -19 -59 -16
-66 16 -31 56 62 84 141 133 373 53 254 86 366 144 497 101 225 283 390 516
465 173 56 248 63 850 72 578 9 660 15 853 64 200 51 349 154 382 264 7 26 10
26 -80 1z"/>
<path d="M350 5755 c0 -14 51 -103 72 -125 64 -70 150 -120 260 -150 191 -52
374 -70 728 -70 329 -1 673 -16 786 -35 54 -10 136 -30 181 -46 95 -34 93 -34
93 -14 0 57 -91 157 -189 209 -179 94 -397 127 -976 146 -496 17 -735 37 -886
76 -63 16 -69 16 -69 9z"/>
<path d="M6226 5745 c-133 -37 -381 -58 -886 -75 -427 -14 -566 -27 -743 -65
-185 -41 -333 -124 -387 -218 -27 -46 -38 -87 -25 -87 2 0 27 9 55 20 155 61
324 79 818 86 594 8 775 25 954 89 138 50 238 136 277 238 12 31 10 32 -63 12z"/>
<path d="M2821 5707 c12 -23 37 -62 57 -87 170 -215 458 -279 704 -158 77 38
201 159 241 236 l28 52 -63 -47 c-120 -91 -258 -140 -418 -150 -192 -11 -361
38 -505 147 l-65 49 21 -42z"/>
<path d="M950 5327 c0 -36 62 -137 111 -181 66 -60 127 -89 256 -122 106 -27
344 -43 683 -44 278 -1 439 -25 564 -85 28 -13 52 -22 54 -20 10 10 -34 110
-65 147 -124 148 -338 205 -848 223 -347 13 -626 45 -727 84 -21 8 -28 8 -28
-2z"/>
<path d="M3318 5332 l-108 -3 5 -297 c3 -163 10 -601 16 -972 5 -371 11 -675
13 -677 1 -1 39 10 84 24 l82 27 1 86 c0 47 6 472 13 945 7 473 10 862 7 865
-3 3 -54 4 -113 2z"/>
<path d="M5669 5330 c-62 -36 -307 -65 -722 -85 -176 -9 -353 -20 -395 -26
-105 -15 -250 -53 -303 -79 -115 -59 -194 -146 -214 -237 l-7 -33 66 31 c124
58 210 69 631 79 209 5 422 15 473 21 253 29 409 115 477 262 34 73 33 90 -6
67z"/>
<path d="M1410 4899 c0 -38 50 -127 94 -167 108 -100 197 -121 566 -132 397
-13 473 -23 569 -76 24 -13 46 -22 48 -20 2 2 1 20 -2 40 -10 50 -71 133 -128
172 -108 74 -228 100 -561 119 -352 21 -439 32 -543 69 -41 15 -43 14 -43 -5z"/>
<path d="M5208 4910 c-56 -34 -270 -61 -573 -75 -406 -19 -574 -83 -655 -250
-19 -40 -27 -85 -14 -85 4 0 21 9 38 19 90 55 182 68 561 81 315 10 374 18
478 64 74 33 130 86 167 158 41 83 40 112 -2 88z"/>
<path d="M2555 4207 c-57 -22 -167 -89 -210 -130 -11 -10 -50 -36 -86 -57 -78
-46 -122 -94 -158 -170 -22 -46 -26 -69 -26 -140 0 -72 4 -94 28 -144 73 -156
281 -286 599 -374 l66 -19 54 34 c69 44 182 101 285 143 46 18 82 35 80 36 -1
2 -88 28 -192 59 -448 132 -532 164 -589 224 -34 35 -38 76 -13 115 23 34 104
88 130 87 12 0 70 -4 129 -7 79 -5 127 -2 190 10 83 17 213 72 211 91 -1 5
-25 17 -53 26 -87 28 -85 39 8 39 80 0 82 1 82 24 0 38 -36 73 -113 111 -136
67 -309 84 -422 42z m333 -84 c5 -31 -37 -51 -73 -35 -47 22 -22 65 35 60 28
-2 36 -8 38 -25z"/>
<path d="M3795 4211 c-90 -25 -140 -46 -182 -79 -37 -27 -67 -77 -58 -92 3 -6
43 -10 88 -10 91 0 93 -9 9 -38 -29 -10 -55 -21 -58 -24 -8 -8 44 -42 96 -62
103 -40 290 -58 398 -37 38 7 48 5 94 -23 55 -33 91 -81 91 -122 0 -32 -45
-79 -103 -109 -51 -26 -316 -113 -530 -175 -631 -182 -875 -309 -1004 -524
-116 -193 -65 -468 117 -632 54 -49 203 -144 225 -144 7 0 62 24 123 54 l110
54 -93 45 c-171 82 -251 158 -289 274 -44 132 -12 231 103 318 113 86 320 154
729 240 342 72 525 133 666 221 142 89 205 163 238 278 43 150 -34 324 -175
396 -22 11 -69 44 -103 71 -34 28 -100 69 -146 92 -79 40 -90 42 -180 44 -69
2 -115 -2 -166 -16z m59 -84 c9 -15 7 -21 -8 -33 -41 -30 -106 -1 -85 38 13
25 77 22 93 -5z"/>
<path d="M3679 3050 c-92 -21 -175 -40 -184 -42 -10 -1 19 -18 65 -37 215 -88
304 -206 272 -360 -35 -168 -144 -260 -451 -382 -190 -75 -350 -156 -412 -206
-208 -169 -223 -455 -34 -646 51 -52 161 -127 187 -127 7 0 39 17 70 38 l58
38 -82 59 c-95 70 -142 125 -169 195 -23 61 -24 90 -3 160 33 110 137 182 424
290 324 123 482 226 575 375 56 89 76 165 76 280 0 99 -19 170 -66 246 -30 48
-137 160 -151 158 -5 -1 -84 -18 -175 -39z"/>
<path d="M3306 2982 l-59 -17 7 -354 c4 -196 9 -357 11 -360 3 -2 31 6 63 19
l59 23 6 240 c4 132 7 291 7 354 0 129 6 123 -94 95z"/>
<path d="M3580 2009 c-36 -15 -82 -35 -104 -44 l-38 -16 58 -35 c115 -69 168
-149 167 -251 -1 -138 -78 -219 -403 -426 -216 -137 -306 -247 -325 -398 -8
-67 8 -155 40 -219 27 -52 96 -125 140 -147 29 -14 28 -13 -9 23 -22 22 -53
68 -69 103 -26 54 -30 76 -31 150 -2 186 76 268 429 451 199 102 264 148 320
222 102 136 120 293 50 445 -24 54 -128 174 -149 172 -6 -1 -40 -14 -76 -30z"/>
<path d="M3316 1927 l-49 -22 7 -284 c3 -157 8 -287 11 -289 3 -3 22 7 43 21
l39 25 6 183 c9 240 9 389 0 388 -5 -1 -30 -11 -57 -22z"/>
<path d="M3458 1124 c-27 -13 -48 -26 -48 -29 0 -2 13 -11 29 -19 45 -24 139
-115 167 -162 32 -55 44 -130 33 -216 -10 -81 -37 -138 -93 -197 -38 -41 -39
-42 -11 -28 45 23 120 106 143 157 71 160 39 319 -91 455 -34 36 -67 65 -72
65 -6 -1 -31 -12 -57 -26z"/>
<path d="M3318 1074 l-28 -15 0 -190 c0 -209 17 -653 29 -739 l7 -55 7 90 c23
283 37 917 20 922 -4 1 -20 -5 -35 -13z"/>
</g>
</svg>
