<svg xmlns="http://www.w3.org/2000/svg" width="656" height="633"><svg id="SvgjsSvg1022" xmlns="http://www.w3.org/2000/svg" xmlns:xlink="http://www.w3.org/1999/xlink" viewBox="0 0 656 633" shape-rendering="geometricPrecision" text-rendering="geometricPrecision"><ellipse rx="22.816" ry="21.476" transform="matrix(1.57262 0 0 1.64594 328.194 36.458)" stroke-width="0"/><path d="M275.843 62.116c30.1 26.6 76.245 25.1 104.701 0-24.101 46.3-79.401 46.3-104.701 0" stroke-width="1.332"/><path d="M316.963 104.085h22.5l-2.148 187.892c-4.92 1.277-12.96 3.472-17.054 5.038zm4.527 236.957 2.29 70.172 11.4-4.2 1.9-70.522c-4.477 1.076-12.329 3.142-15.59 4.55m2.737 105.369 2.296 57.53 7.588-4.12 1.282-57.81zm3.159 83.679c1.22-.937 4.333-2.54 6.152-3.282.944 20.68-.154 71.878-2.737 102.465-2.159-21.24-3.806-71.303-3.415-99.184m65.784-342.694c-.73-12.944 15.014-31.73 54.557-32.63 34.422-.92 63.011-4.158 73.05-9.037.659 15.672-15.849 30.378-52.645 31.023-33.73.969-58.162.152-74.962 10.644m-131.562-.552c.731-12.944-15.013-31.73-54.557-32.63-34.422-.92-63.01-4.158-73.049-9.037-.66 15.672 15.848 30.378 52.644 31.023 33.73.969 58.163.152 74.962 10.644m-5.748-34.635c.99-28.447-49.074-36.827-83.916-37.494-39.771-.898-72.815-5.929-83.311-9.678 9.808 34.21 45.693 33.731 89.472 35.406 51.913 0 64.592 2.153 77.755 11.766m-18.73-44.338c-3.901-26.337-52.633-37.15-97.543-37.066-68.483-.442-106.161-5.614-114.451-9.43 10.08 32.84 61.127 35.116 112.825 34.79 47.146.326 88.755 4.19 99.17 11.706" stroke-width="1.332"/><path d="M292.449 198.411c-2.166-7.73-4.383-13.638-5.447-34.286-4.394-133.402-74.922-124.963-129.03-128.073C103.864 34.808 30.955 32.896.997 19.694 13.682 51.797 55.834 55.412 152.59 55.412c91.688-.46 110.725 36.548 124.4 107.883 2.05 12.427 8.407 30.885 15.459 35.116m107.364-47.413c-.99-28.447 49.074-36.827 83.916-37.494 39.771-.898 72.815-5.929 83.31-9.678-9.807 34.21-45.692 33.731-89.471 35.406-51.913 0-64.592 2.153-77.755 11.766m15.359-43.615c3.902-26.337 52.634-37.15 97.544-37.066 68.482-.442 106.161-5.614 114.451-9.43-10.08 32.84-61.127 35.116-112.825 34.79-47.146.326-88.755 4.19-99.17 11.706" stroke-width="1.332"/><path d="M363.538 198.11c2.166-7.731 4.383-13.639 5.448-34.287C373.379 30.42 443.906 38.86 498.015 35.75c54.108-1.244 127.017-3.156 156.976-16.358-12.686 32.103-54.838 35.718-151.594 35.718-91.688-.46-110.725 36.548-124.4 107.883-2.05 12.427-8.407 30.885-15.459 35.116m-26.23 327.571c3.184-1.74 9.227-4.497 11.438-5.375 31.972 26.58 21.2 58.523.3 70.142 22.494-22.683 11.18-51.512-11.738-64.767" stroke-width="1.332"/><path d="M311.843 590.041c-21.343-20.315-22.144-51.179 22.95-69.818 59.222-22.752 55.722-68.397 28.236-88.565l-23.001 9.171c35.028 16.821 32.617 43.164-8.049 67.174-60.518 30.458-41.479 71.744-20.136 82.038" stroke-width="1.332"/><path d="M322.946 505.783c-28.985-15.927-50.783-50.206 24.678-75.076 60-20.921 74.69-69.984 34.502-102.394-6.687.461-25.117 4.307-36.594 6.895 45.666 15.287 53.62 55.066-13.342 80.065-75.156 25.785-62.829 76.654-21.818 98.856 2.974-2.27 9.242-6.453 12.574-8.346" stroke-width="1.332"/><path d="M318.247 411.9c-66.455-31.045-52.553-75.264 47.378-88.123 79.792-12.941 114.2-57.712 66.803-90.018-25.186-26.702-70.216-26.423-79.873-3.057-.508 1.23-.896 2.553 1.277 2.707 6.963.519 14.431.406 14.523 1.39-.08.708-6.43 3.268-11.285 4.908-.8.38-1.22.8-.294 1.62 12.001 9.588 37.095 13.589 51.963 8.066 40.716 20.14-11.37 35.06-61.118 47.378-142.134 38.245-93.939 109.58-53.063 126.5z" stroke-width="1.332"/><path d="M315.37 298.642c-23.598 8.063-30.187 12.52-41.476 21.182-70.593-18.013-91.339-59.293-45.923-87.787 25.186-26.702 68.283-24.697 77.94-1.331.509 1.228.752 2.945-1.42 3.099-6.964.518-14.287.013-14.38.997.08.708 6.43 3.268 11.285 4.908.8.38 1.22.8.295 1.62-11.31 8.896-36.677 13.17-51.963 8.067-44.042 21.565 18.053 34.876 65.642 49.245" stroke-width="1.332"/><ellipse rx="5.354" ry="3.86" transform="matrix(1 0 0 .93548 377.647 225.645)" fill="#fff"/><ellipse rx="5.354" ry="3.86" transform="matrix(1 0 0 .93548 280.752 225.478)" fill="#fff"/></svg><style>@media (prefers-color-scheme:light){:root{filter:none}}@media (prefers-color-scheme:dark){:root{filter:invert(100%)}}</style></svg>