<svg xmlns="http://www.w3.org/2000/svg" version="1.1" xmlns:xlink="http://www.w3.org/1999/xlink" xmlns:svgjs="http://svgjs.dev/svgjs" width="656" height="633"><svg id="SvgjsSvg1022" xmlns="http://www.w3.org/2000/svg" xmlns:xlink="http://www.w3.org/1999/xlink" viewBox="0 0 656 633" shape-rendering="geometricPrecision" text-rendering="geometricPrecision" project-id="90b5272ea8b940428689c099f9fcd508" export-id="ef4979bcdf734693a24bc77c1df7062f" cached="false"><ellipse rx="22.816351" ry="21.476445" transform="matrix(1.572616 0 0 1.645945 328.193558 36.457873)" stroke-width="0"></ellipse><ellipse rx="0" ry="4.866017" transform="translate(265.852648 5.974843)" fill="#d2dbed" stroke-width="0"></ellipse><path d="M280,69.4c30.099998,26.6,76.245506,25.1,104.701489,0C360.599998,115.7,305.299998,115.7,280,69.4Z" transform="translate(-4.157186-7.284329)" stroke-width="1.332"></path><path d="M321,111.3h22.5l-2.1482,187.891457c-4.919978,1.277491-12.959792,3.471999-17.054229,5.038749L321,111.3Z" transform="translate(-4.036997-7.21484)" stroke-width="1.332"></path><path d="M324.410414,348.727466L326.7,418.9l11.4-4.2l1.9-70.522412c-4.477419,1.076827-12.328573,3.142732-15.589586,4.549878Z" transform="translate(-2.920064-7.685949)" stroke-width="1.332"></path><path d="M326.709931,453.5l2.296166,57.529065l7.587795-4.119089L337.876024,449.1l-11.166093,4.4Z" transform="translate(-2.482804-7.088928)" stroke-width="1.332"></path><path d="M329.054347,537.316207c1.219409-.936835,4.332763-2.539968,6.15194-3.281034.944037,20.679356-.154021,71.877857-2.736853,102.464827-2.158412-21.241009-3.806213-71.302968-3.415087-99.183793Z" transform="translate(-1.668543-7.226737)" stroke-width="1.332"></path><path d="M396.1,194c-.730867-12.943855,15.013589-31.730959,54.557494-32.630861c34.421492-.918695,63.010708-4.157689,73.048634-9.036766.659666,15.672274-15.847852,30.3782-52.644055,31.023747-33.729852.968321-58.162424.151328-74.962073,10.64388Z" transform="translate(-2.929995-6.604768)" stroke-width="1.332"></path><path d="M396.1,194c-.730867-12.943855,15.013589-31.730959,54.557494-32.630861c34.421492-.918695,63.010708-4.157689,73.048634-9.036766.659666,15.672274-15.847852,30.3782-52.644055,31.023747-33.729852.968321-58.162424.151328-74.962073,10.64388Z" transform="matrix(-1 0 0 1 657.708262-7.156823)" stroke-width="1.332"></path><path d="M402.98201,157.130067c-.989388-28.447047,49.074048-36.827082,83.916303-37.494518c39.771002-.897461,72.814974-5.928484,83.31084-9.677885-9.808426,34.209873-45.692908,33.731414-89.471976,35.406023-51.912884,0-64.592067,2.153069-77.755167,11.76638Z" transform="matrix(-1 0 0 1 658.842139-4.921798)" stroke-width="1.332"></path><path d="M418.102285,114.146971c3.901748-26.336805,52.633494-37.150173,97.543722-37.066614c68.482463-.442007,106.161245-5.613095,114.4513-9.429227-10.079518,32.83972-61.127399,35.115739-112.825572,34.790594-47.146132.325145-88.755095,4.188665-99.16945,11.705247Z" transform="matrix(-1 0 0 1 655.23296-6.276808)" stroke-width="1.332"></path><path d="M366.655297,205.385133c2.165909-7.730248,4.382903-13.63797,5.447254-34.28638C376.496456,37.696571,447.023625,46.135718,501.131945,43.026045c54.108321-1.24387,127.016642-3.15573,156.975586-16.357975-12.685894,32.10308-54.837656,35.717767-151.593559,35.717767-91.687736-.460742-110.725245,36.54835-124.399186,107.883478-2.050876,12.426774-8.407392,30.88456-15.459489,35.115818Z" transform="matrix(-1 0 0 1 659.104053-6.973912)" stroke-width="1.332"></path><path d="M402.98201,157.130067c-.989388-28.447047,49.074048-36.827082,83.916303-37.494518c39.771002-.897461,72.814974-5.928484,83.31084-9.677885-9.808426,34.209873-45.692908,33.731414-89.471976,35.406023-51.912884,0-64.592067,2.153069-77.755167,11.76638Z" transform="translate(-3.169224-6.132008)" stroke-width="1.332"></path><path d="M418.102285,114.146971c3.901748-26.336805,52.633494-37.150173,97.543722-37.066614c68.482463-.442007,106.161245-5.613095,114.4513-9.429227-10.079518,32.83972-61.127399,35.115739-112.825572,34.790594-47.146132.325145-88.755095,4.188665-99.16945,11.705247Z" transform="translate(-2.929995-6.763782)" stroke-width="1.332"></path><path d="M366.655297,205.385133c2.165909-7.730248,4.382903-13.63797,5.447254-34.28638C376.496456,37.696571,447.023625,46.135718,501.131945,43.026045c54.108321-1.24387,127.016642-3.15573,156.975586-16.357975-12.685894,32.10308-54.837656,35.717767-151.593559,35.717767-91.687736-.460742-110.725245,36.54835-124.399186,107.883478-2.050876,12.426774-8.407392,30.88456-15.459489,35.115818Z" transform="translate(-3.117004-7.275936)" stroke-width="1.332"></path><path d="M339.689967,532.90552c3.184303-1.740099,9.227363-4.49644,11.438189-5.374571c31.972201,26.579595,21.20065,58.523018.299376,70.142256c22.494793-22.682859,11.180253-51.512514-11.737565-64.767685Z" transform="translate(-2.381879-7.225954)" stroke-width="1.332"></path><path d="M314.031439,597.500639c-21.342634-20.314637-22.144301-51.178816,22.949467-69.817574c59.222882-22.751964,55.72253-68.397204,28.236998-88.565451l-23.001379,9.171436c35.02801,16.821065,32.617241,43.164003-8.048552,67.173851-60.518759,30.458088-41.479168,71.743938-20.136534,82.037738Z" transform="translate(-2.188516-7.459666)" stroke-width="1.332"></path><path d="M325.590866,512.655512c-28.98523-15.92658-50.782946-50.205647,24.67804-75.075484c59.999905-20.921628,74.689295-69.984264,34.5013-102.39397-6.686826.460559-25.116454,4.306766-36.593243,6.894379c45.665951,15.287308,53.619989,55.066325-13.342777,80.06487-75.155544,25.785126-62.828215,76.654572-21.81738,98.856779c2.973576-2.270484,9.242046-6.453051,12.57406-8.346574Z" transform="translate(-2.644676-6.872625)" stroke-width="1.332"></path><path d="M321.87389,418.72806c-66.455406-31.044334-52.552768-75.263927,47.377932-88.122953c79.79245-12.940893,114.1993-57.712187,66.802883-90.018072-25.185945-26.701465-70.215817-26.422186-79.873081-3.056308-.507853,1.228757-.896059,2.553118,1.277006,2.706843c6.962799.518581,14.43114.405447,14.523029,1.389576-.079569.70847-6.429647,3.26782-11.284365,4.907837-.8.380001-1.22.800001-.294693,1.62081c12.001263,9.587871,37.095402,13.588284,51.963139,8.065956c40.716122,20.140426-11.370706,35.059666-61.117534,47.377928-142.134663,38.24431-93.939201,109.580177-53.063282,126.499079L321.87389,418.72806Z" transform="translate(-3.626801-6.828374)" stroke-width="1.332"></path><path d="M346.722933,305.466697c23.598186,8.063745,30.18732,12.5211,41.476305,21.182089c70.593402-18.01243,91.339079-59.292599,45.922745-87.7869-25.185945-26.701465-68.283095-24.697037-77.940359-1.331159-.507853,1.228757-.751568,2.945471,1.421497,3.099196c6.962799.518581,14.286649.013094,14.378538.997223-.079569.70847-6.429647,3.26782-11.284365,4.907837-.8.380001-1.22.800001-.294693,1.62081c11.308857,8.895467,36.676548,13.169431,51.963139,8.065956c44.041678,21.565666-18.053421,34.876519-65.642807,49.244948Z" transform="matrix(-1 0 0 1 662.09338-6.825173)" stroke-width="1.332"></path><ellipse rx="5.353509" ry="3.859506" transform="matrix(1 0 0 0.935483 377.646534 225.64489)" fill="#fff"></ellipse><ellipse rx="5.353509" ry="3.859506" transform="matrix(1 0 0 0.935483 280.751527 225.477829)" fill="#fff"></ellipse></svg><style>@media (prefers-color-scheme: light) { :root { filter: none; } }
@media (prefers-color-scheme: dark) { :root { filter: invert(100%); } }
</style></svg>