<?xml version="1.0" encoding="iso-8859-1"?>
<!-- Uploaded to: SVG Repo, www.svgrepo.com, Generator: SVG Repo Mixer Tools -->
<svg fill="#000000" height="800px" width="800px" version="1.1" id="Layer_1" xmlns="http://www.w3.org/2000/svg" xmlns:xlink="http://www.w3.org/1999/xlink" 
	 viewBox="0 0 471.1 471.1" xml:space="preserve">
<g transform="translate(0 -540.36)">
	<g>
		<g>
			<path d="M245.55,877.16v-221.8c0-5.5-4.5-10-10-10s-10,4.5-10,10v221.8c-20.3,4.5-35.5,22.3-35.5,43.6
				c0,24.6,20.4,44.7,45.5,44.7c25.1,0,45.5-20,45.5-44.7C281.05,899.56,265.85,881.66,245.55,877.16z M235.55,945.46
				c-14.1,0-25.5-11.1-25.5-24.7c0-13.6,11.4-24.7,25.5-24.7c14.1,0,25.5,11.1,25.5,24.7C261.05,934.46,249.65,945.46,235.55,945.46
				z"/>
			<path d="M292.55,846.26v-249.9c0-30.9-25.6-56-57-56c-31.4,0-57,25.1-57,56v249.9c-30.4,23.6-43,63.4-31.5,100.9
				c5.9,18.7,17.5,34.7,33.5,46.4c16,11.7,35.1,17.9,55,17.9v0c19.9,0,39-6.2,55-17.9s27.6-27.7,33.5-46.5
				C335.55,909.66,322.85,869.86,292.55,846.26z M304.95,941.26c-9.4,30-37.3,50.2-69.4,50.2c-32.1,0-60-20.2-69.4-50.2
				c-9.4-30.7,1.9-63.5,28.1-81.6c2.7-1.8,4.3-4.9,4.3-8.2v-255c0-19.5,16.9-36,37-36c20.1,0,37,16.5,37,36v255
				c0,3.3,1.6,6.3,4.3,8.2C303.05,877.76,314.35,910.56,304.95,941.26z"/>
			<path d="M400.55,540.46h-47c-5.5,0-10,4.5-10,10v92.8c0,5.5,4.5,10,10,10s10-4.5,10-10v-36h25.5c5.5,0,10-4.5,10-10
				s-4.5-10-10-10h-25.5v-26.8h37c5.5,0,10-4.5,10-10S406.05,540.46,400.55,540.46z"/>
			<path d="M129.05,817.96h-58.5c-5.5,0-10,4.5-10,10s4.5,10,10,10h58.5c5.6,0,10-4.5,10-10S134.55,817.96,129.05,817.96z"/>
			<path d="M129.05,679.26h-35.5c-5.5,0-10,4.5-10,10s4.5,10,10,10h35.5c5.6,0,10-4.5,10-10S134.55,679.26,129.05,679.26z"/>
			<path d="M129.05,633.26h-58.5c-5.5,0-10,4.5-10,10s4.5,10,10,10h58.5c5.6,0,10-4.5,10-10S134.55,633.26,129.05,633.26z"/>
			<path d="M129.05,587.26h-35.5c-5.5,0-10,4.5-10,10s4.5,10,10,10h35.5c5.6,0,10-4.5,10-10S134.55,587.26,129.05,587.26z"/>
			<path d="M129.05,540.46h-58.5c-5.5,0-10,4.5-10,10s4.5,10,10,10h58.5c5.6,0,10-4.5,10-10S134.55,540.46,129.05,540.46z"/>
			<path d="M129.05,772.06h-35.5c-5.5,0-10,4.5-10,10s4.5,10,10,10h35.5c5.6,0,10-4.5,10-10S134.55,772.06,129.05,772.06z"/>
			<path d="M129.05,726.06h-58.5c-5.5,0-10,4.5-10,10s4.5,10,10,10h58.5c5.6,0,10-4.5,10-10S134.55,726.06,129.05,726.06z"/>
		</g>
	</g>
</g>
</svg>