<?xml version="1.0" encoding="utf-8"?>
<svg height="678px" width="678px" version="1.1" id="_x32_" xmlns="http://www.w3.org/2000/svg" viewBox="0 0 600 600" xmlns:bx="https://boxy-svg.com"><defs><bx:export><bx:file format="svg" path="Unbetitelt.svg" excluded="true"/><bx:file format="svg" path="Unbetitelt 4.svg" excluded="true"/><bx:file format="svg" path="Unbetitelt 5.svg"/><bx:file format="svg" href="#object-0" path="Unbetitelt 2.svg" excluded="true"/><bx:file format="svg" href="#object-1" path="Unbetitelt 3.svg" excluded="true"/></bx:export></defs><style type="text/css">
	.st0{fill:#000000;}
</style><g id="object-0" transform="matrix(1, 0, 0, 1, 53.285126, 7.172941)"><path class="st0" d="M 461.915 267.896 L 262.316 70.552 L 262.36 70.645 C 239.865 48.098 210.217 36.777 180.711 36.827 C 151.248 36.777 121.599 48.098 99.102 70.645 C 76.562 93.135 65.245 122.737 65.287 152.254 C 65.245 181.756 76.561 211.401 99.102 233.899 L 146.208 280.499 C 144.788 280.456 143.366 280.456 141.949 280.456 C 103.317 280.456 68.223 290.17 41.965 306.617 C 28.859 314.862 17.908 324.806 10.119 336.399 C 2.287 347.949 -2.298 361.234 -2.298 375.257 L -2.298 453.976 C -2.298 467.992 2.287 481.284 10.119 492.834 C 21.851 510.198 40.496 523.984 63.226 533.664 C 85.999 543.328 112.988 548.777 141.949 548.827 C 180.528 548.777 215.625 539.069 241.879 522.616 C 255.028 514.414 265.933 504.428 273.769 492.835 C 281.562 481.285 286.143 467.993 286.143 453.977 L 286.143 418.833 L 298.697 431.258 L 298.654 431.158 C 321.148 453.698 350.797 465.026 380.302 464.976 C 409.768 465.026 439.414 453.698 461.914 431.208 C 484.454 408.66 495.728 379.065 495.728 349.549 C 495.729 320.039 484.455 290.436 461.915 267.896 Z M 132.189 185.513 C 113.083 166.364 113.083 134.883 132.461 115.504 C 141.807 106.155 154.27 100.979 167.563 100.979 L 132.189 185.513 Z M 20.612 375.257 C 20.655 366.231 23.451 357.62 29.094 349.182 C 34.044 341.812 41.325 334.75 50.441 328.477 L 225.753 431.071 C 221.767 433.265 217.552 435.33 213.103 437.208 C 192.99 445.775 168.431 450.816 141.951 450.816 C 106.571 450.866 74.681 441.79 52.187 427.63 C 40.917 420.533 32.027 412.23 26.069 403.347 C 23.864 400.042 22.036 396.702 20.613 393.267 L 20.613 375.257 L 20.612 375.257 Z M 263.234 453.977 C 263.234 463.003 260.392 471.621 254.76 480.045 C 246.322 492.605 231.342 504.241 211.686 512.587 C 192.074 520.925 167.971 525.922 141.95 525.922 C 107.215 525.922 75.921 516.982 54.158 503.238 C 43.25 496.406 34.725 488.39 29.094 480.045 C 23.452 471.621 20.655 463.003 20.612 453.977 L 20.612 421.493 C 31.699 433.767 46.823 443.991 64.646 451.547 C 86.914 460.996 113.444 466.401 141.95 466.401 C 179.933 466.401 214.39 456.815 239.955 440.778 C 248.935 435.192 256.771 428.733 263.234 421.535 L 263.234 453.977 Z M 263.234 393.267 C 262.962 393.955 262.682 394.593 262.316 395.281 C 261.083 398.034 259.567 400.687 257.778 403.346 C 253.931 409.118 248.752 414.574 242.614 419.657 L 69.045 318.117 C 70.099 317.658 71.11 317.106 72.161 316.697 C 91.772 308.359 115.876 303.362 141.951 303.362 C 152.211 303.362 162.159 304.143 171.64 305.613 C 194.277 309.047 214.344 316.375 229.694 325.995 C 231.572 327.142 233.361 328.383 235.053 329.623 C 243.347 335.531 249.9 342.083 254.528 348.916 C 254.621 349.002 254.711 349.095 254.761 349.181 C 260.393 357.619 263.235 366.23 263.235 375.256 L 263.235 393.267 L 263.234 393.267 Z M 442.486 411.727 C 425.258 428.919 402.847 437.479 380.303 437.479 C 357.715 437.479 335.312 428.955 318.08 411.727 L 318.034 411.684 L 286.144 380.16 L 286.144 375.257 C 286.144 361.233 281.563 347.948 273.77 336.399 C 263.969 321.967 249.444 310.009 231.754 300.846 C 233.955 295.118 236.748 288.88 240.186 282.478 C 249.9 264.232 264.472 244.437 283.764 229.231 C 302.96 214.061 326.562 203.249 355.748 201.593 L 442.44 287.324 L 442.486 287.324 C 459.668 304.552 468.235 327.007 468.235 349.547 C 468.235 372.095 459.668 394.55 442.486 411.727 Z"/></g><path style="stroke-linecap: round; paint-order: fill; stroke: rgb(142, 0, 0); stroke-width: 100px;" d="M 55.018 545.116 L 542.876 55.496" id="object-1"/><path style="stroke-linecap: round; paint-order: fill; stroke: rgb(142, 0, 0); stroke-width: 100px;" d="M 54.317 59.781 L 542.579 537.801" id="path-1"/></svg>