<?xml version="1.0" encoding="utf-8"?>
<svg fill="#000000" height="800px" width="800px" version="1.1" id="Layer_1" xmlns="http://www.w3.org/2000/svg" viewBox="0 0 471 471" xmlns:bx="https://boxy-svg.com"><defs><bx:export><bx:file format="svg" path="Unbetitelt.svg"/></bx:export></defs><g transform="translate(0 -540.36)"><g><g><path d="M 244.655 877.129 L 244.655 828.829 C 244.655 823.329 240.155 818.829 234.655 818.829 C 229.155 818.829 224.655 823.329 224.655 828.829 L 224.655 877.129 C 204.355 881.629 189.155 899.429 189.155 920.729 C 189.155 945.329 209.555 965.429 234.655 965.429 C 259.755 965.429 280.155 945.429 280.155 920.729 C 280.155 899.529 264.955 881.629 244.655 877.129 Z M 234.655 945.429 C 220.555 945.429 209.155 934.329 209.155 920.729 C 209.155 907.129 220.655 896.029 234.655 896.029 C 248.655 896.029 260.155 907.129 260.155 920.729 C 260.155 934.429 248.756 945.429 234.655 945.429 Z"/><path d="M 291.956 846.429 L 291.956 596.429 C 291.956 565.529 266.356 540.429 234.856 540.429 C 202.856 540.429 176.856 565.529 176.856 596.429 L 176.856 846.429 C 146.356 870.729 134.056 910.529 146.256 947.329 C 152.156 965.929 163.756 982.029 179.756 993.629 C 195.856 1005.229 214.856 1011.429 234.856 1011.429 C 275.156 1011.429 311.556 985.029 323.456 947.129 C 334.855 910.329 322.156 870.429 291.956 846.429 Z M 304.256 941.329 C 294.956 970.829 266.356 991.529 234.756 991.529 C 202.656 991.529 174.756 971.429 165.256 941.329 C 165.256 941.229 165.256 941.229 165.256 941.129 C 155.256 911.129 166.256 878.329 192.656 859.629 C 195.256 857.729 196.856 854.629 196.856 851.429 L 196.856 596.429 C 196.856 576.529 213.956 560.429 234.856 560.429 C 254.956 560.429 271.956 576.929 271.856 596.529 L 271.856 851.529 C 271.856 854.829 273.456 857.829 276.056 859.729 C 302.155 878.229 313.556 911.129 304.256 941.329 Z"/><path d="M 466.855 740.329 C 462.955 736.329 456.655 736.329 452.755 740.129 L 422.655 769.529 L 422.655 655.329 C 422.655 649.829 418.155 645.329 412.655 645.329 C 407.155 645.329 402.655 649.829 402.655 655.329 L 402.655 769.829 L 371.555 740.029 C 367.555 736.229 361.255 736.329 357.455 740.329 C 353.655 744.329 353.755 750.629 357.755 754.429 L 405.755 800.429 C 407.655 802.329 410.155 803.229 412.655 803.229 C 415.155 803.229 417.655 802.329 419.655 800.429 L 466.755 754.429 C 470.655 750.629 470.655 744.229 466.855 740.329 Z"/></g></g></g></svg>